<svg width="62" height="275" xmlns="http://www.w3.org/2000/svg" xmlns:xlink="http://www.w3.org/1999/xlink" xml:space="preserve" overflow="hidden"><defs><clipPath id="clip0"><rect x="698" y="342" width="62" height="275"/></clipPath><clipPath id="clip1"><rect x="698" y="483" width="62" height="134"/></clipPath><clipPath id="clip2"><rect x="698" y="483" width="62" height="134"/></clipPath><clipPath id="clip3"><rect x="698" y="483" width="62" height="134"/></clipPath></defs><g clip-path="url(#clip0)" transform="translate(-698 -342)"><g clip-path="url(#clip1)"><g clip-path="url(#clip2)"><g clip-path="url(#clip3)"><path d="M154.361 163.823C152.75 166.79 151.113 169.807 149.144 172.62 147.993 174.206 146.74 175.715 145.333 177.044 146.996 180.139 148.812 183.131 150.985 185.791 152.264 187.299 153.722 188.732 155.384 189.959 155.588 189.729 155.767 189.473 156.023 189.243 157.992 186.916 159.629 184.103 161.368 181.443 160.268 177.991 159.22 174.513 158.325 170.984 157.481 167.812 156.714 164.565 155.716 161.445 155.205 162.289 154.77 163.107 154.361 163.823Z" fill="#007954" transform="matrix(1 0 0 1.01253 587.515 356.08)"/><path d="M136.843 179.218C138.557 178.553 140.168 177.684 141.625 176.635 140.602 174.922 139.605 173.26 138.608 171.597 138.071 174.155 137.457 176.686 136.843 179.218Z" fill="#007954" transform="matrix(1 0 0 1.01253 587.515 356.08)"/><path d="M185.253 240.85C183.387 236.528 181.571 232.181 179.704 227.859 175.229 226.503 170.881 224.918 166.636 223.025 161.879 226.836 156.33 229.802 150.448 232.053 146.97 233.408 143.441 234.508 139.835 235.505 143.313 237.577 146.919 239.469 150.448 241.413 155.998 244.379 162.34 246.093 168.298 248.266 169.679 248.778 171.06 249.212 172.467 249.647 175.357 249.289 178.246 248.906 181.136 248.471 182.798 248.241 184.665 247.831 185.612 246.527 186.813 244.891 186.046 242.666 185.253 240.85Z" fill="#007954" transform="matrix(1 0 0 1.01253 587.515 356.08)"/><path d="M129.58 203.948C128.992 205.738 128.353 207.477 127.713 209.241 130.168 208.321 132.675 207.502 134.951 206.403 133.186 205.635 131.371 204.843 129.58 203.948Z" fill="#007954" transform="matrix(1 0 0 1.01253 587.515 356.08)"/><path d="M135.078 234.943C134.004 234.278 132.982 233.638 131.907 232.922 128.02 230.314 124.824 227.066 121.806 223.614 119.581 227.859 116.666 233.127 115.668 237.602 121.371 237.526 127.355 236.733 132.7 235.454 133.493 235.326 134.286 235.147 135.078 234.943Z" fill="#007954" transform="matrix(1 0 0 1.01253 587.515 356.08)"/><path d="M147.175 198.782C149.579 196.634 151.727 194.255 153.798 191.8 149.63 188.271 146.152 183.694 143.109 178.886 141.012 180.471 138.633 181.724 136.025 182.491 134.414 188.783 132.547 195.048 130.526 201.211 132.828 202.644 135.13 203.896 137.508 205.047 140.909 203.257 144.285 201.365 147.175 198.782Z" fill="#007954" transform="matrix(1 0 0 1.01253 587.515 356.08)"/><path d="M148.402 169.449C150.269 166.483 151.088 162.212 152.878 159.194 153.236 158.555 153.619 157.916 154.105 157.327 153.185 155.307 152.136 153.338 150.781 151.548 149.937 150.448 148.914 149.323 147.482 149.093 144.106 148.453 142.29 152.622 141.779 155.793 141.191 159.348 140.5 162.877 139.81 166.457 141.319 169.117 142.7 171.93 144.157 174.743 145.768 173.132 147.252 171.342 148.402 169.449Z" fill="#007954" transform="matrix(1 0 0 1.01253 587.515 356.08)"/><path d="M137.15 236.17C135.616 236.554 134.056 236.912 132.521 237.27 126.869 238.574 121.167 239.878 115.336 240.159 115.259 241.899 115.617 243.407 116.615 244.584 122.087 251.233 140.807 250.721 148.453 249.622 149.758 252.128 147.226 255.095 149.681 256.501 152.136 257.933 155.333 257.601 158.146 256.936 158.222 254.992 158.299 253.049 158.376 251.079 160.882 250.875 163.337 250.593 165.818 250.363 159.91 248.19 154.207 245.581 148.633 242.564 144.797 240.492 140.909 238.421 137.15 236.17Z" fill="#007954" transform="matrix(1 0 0 1.01253 587.515 356.08)"/><path d="M134.337 232.078C135.488 232.82 136.638 233.536 137.789 234.227 141.6 233.229 145.308 232.078 148.99 230.697 154.617 228.549 159.731 225.557 164.028 221.747 161.01 220.289 158.095 218.704 155.281 216.965 150.371 213.921 145.845 210.392 140.321 208.372 139.221 207.988 138.096 207.528 136.997 207.144 133.519 209.011 130.015 210.827 126.511 212.694 125.719 214.791 124.977 216.862 124.133 218.959 123.98 219.343 123.775 219.829 123.545 220.315 126.818 224.483 129.811 229.163 134.337 232.078Z" fill="#007954" transform="matrix(1 0 0 1.01253 587.515 356.08)"/><path d="M157.021 191.11C159.757 192.849 162.8 194.153 166.048 194.844 164.769 191.519 163.593 188.143 162.442 184.793 160.857 186.609 159.322 188.476 157.737 190.291 157.507 190.547 157.251 190.829 157.021 191.11Z" fill="#007954" transform="matrix(1 0 0 1.01253 587.515 356.08)"/><path d="M168.503 221.44C171.7 222.718 175.024 223.818 178.4 224.816 177.914 223.742 177.479 222.667 177.019 221.619 176.098 219.471 175.203 217.374 174.283 215.251 172.595 217.476 170.651 219.547 168.503 221.44Z" fill="#007954" transform="matrix(1 0 0 1.01253 587.515 356.08)"/><path d="M148.837 199.728C145.947 202.234 142.623 204.127 139.247 205.942 140.245 206.377 141.319 206.812 142.367 207.247 147.354 209.19 151.548 212.387 155.998 215.2 159.041 217.144 162.289 218.806 165.664 220.263 168.35 217.655 170.728 214.689 172.722 211.441 170.856 206.965 168.989 202.49 167.25 197.989 162.698 197.427 158.785 195.662 155.333 193.079 153.312 195.432 151.215 197.708 148.837 199.728Z" fill="#007954" transform="matrix(1 0 0 1.01253 587.515 356.08)"/><path d="M136.587 138.531C137.585 139.375 138.659 140.065 139.784 140.628 140.5 140.986 141.293 141.421 141.395 142.162 141.446 142.469 141.344 142.751 141.242 143.032 140.807 144.055 139.938 144.924 139.656 145.998 139.349 147.303 140.219 148.249 141.319 148.019 142.162 147.814 143.722 145.487 144.362 144.848 145.026 144.183 145.871 143.416 146.817 143.543 147.328 143.62 147.763 143.927 148.198 144.259L150.704 146.152C151.343 146.638 152.238 146.229 152.315 145.436 152.392 144.515 152.162 143.569 151.573 142.827 151.088 142.239 150.729 141.549 150.653 140.807 150.269 137.048 154.54 138.301 155.844 136.255 155.921 136.102 155.998 135.948 155.998 135.769 155.946 135.488 155.691 135.283 155.435 135.181 153.415 134.235 150.806 135.385 148.914 134.183 147.558 133.314 147.175 131.601 146.407 130.22 145.973 129.427 144.822 129.427 144.387 130.271L142.521 133.749C142.29 134.235 142.009 134.695 141.523 135.028 141.012 135.385 140.295 135.334 139.656 135.385 138.787 135.437 137.866 135.616 137.048 135.871 135.948 136.255 135.692 137.764 136.587 138.531Z" fill="#007954" transform="matrix(1 0 0 1.01253 587.515 356.08)"/></g></g></g></g></svg>